<svg width="29" height="30" viewBox="0 0 29 30" xmlns="http://www.w3.org/2000/svg"><title>logo round</title><g transform="translate(-2 -6)" fill="none"><g fill="#FFF"><ellipse cx="20.816" cy="22.189" rx="10.045" ry="10.022"/><path d="M14.544 26.207l5.262 3.24a1.402 1.402 0 0 1-.399 2.557l-12.44 3.102a1.405 1.405 0 0 1-1.704-1.025L2.48 22.824a7.674 7.674 0 0 1-.311-1.26l-.044-.175a1.399 1.399 0 0 1-.032-.492 7.599 7.599 0 0 1 5.747-7.882h.004c4.075-1.017 8.2 1.456 9.213 5.522a7.587 7.587 0 0 1-2.514 7.67z"/><path d="M15.107 9.187l6.71-2.711a5.4 5.4 0 0 1 7.026 2.989 5.4 5.4 0 0 1-2.977 7.03L13.529 21.48a7.483 7.483 0 0 1-1.56.627 5.36 5.36 0 0 1-2.988.192 7.425 7.425 0 0 1-5.854-4.576l-.256-.634c-1.536-3.802.296-8.128 4.092-9.662a7.416 7.416 0 0 1 8.144 1.76z"/></g><ellipse fill="#FFD740" style="mix-blend-mode:multiply" cx="20.816" cy="22.189" rx="10.045" ry="10.022"/><path d="M14.544 26.207l5.262 3.24a1.402 1.402 0 0 1-.399 2.557l-12.44 3.102a1.405 1.405 0 0 1-1.704-1.025L2.48 22.824a7.674 7.674 0 0 1-.311-1.26l-.044-.175a1.399 1.399 0 0 1-.032-.492 7.599 7.599 0 0 1 5.747-7.882h.004c4.075-1.017 8.2 1.456 9.213 5.522a7.587 7.587 0 0 1-2.514 7.67z" fill="#FF4081" style="mix-blend-mode:multiply"/><path d="M15.107 9.187l6.71-2.711a5.4 5.4 0 0 1 7.026 2.989 5.4 5.4 0 0 1-2.977 7.03L13.529 21.48a7.483 7.483 0 0 1-1.56.627 5.36 5.36 0 0 1-2.988.192 7.425 7.425 0 0 1-5.854-4.576l-.256-.634c-1.536-3.802.296-8.128 4.092-9.662a7.416 7.416 0 0 1 8.144 1.76z" fill="#40C4FF" style="mix-blend-mode:multiply"/></g></svg>